<?xml version="1.0" encoding="utf-8"?>
<!-- Generator: Adobe Illustrator 17.0.0, SVG Export Plug-In . SVG Version: 6.00 Build 0)  -->
<!DOCTYPE svg PUBLIC "-//W3C//DTD SVG 1.1//EN" "http://www.w3.org/Graphics/SVG/1.1/DTD/svg11.dtd">
<svg version="1.1" id="Layer_1" xmlns="http://www.w3.org/2000/svg" xmlns:xlink="http://www.w3.org/1999/xlink" x="0px" y="0px"
	 width="567px" height="296px" viewBox="0 0 567 296" enable-background="new 0 0 567 296" xml:space="preserve">
<g opacity="0.3">
	<g>
		<g>
			<path fill="#52616B" d="M210.024,48.98c0.012-0.019-0.874-0.538-0.874-0.538"/>
			<path fill="#52616B" d="M214.765,50.747c0.03-0.048-1.647-1.014-1.647-1.014c0.053-0.082,14.624,5.643,14.624,5.643
				s-12.138-7.219-12.024-7.399"/>
			<path fill="#52616B" d="M206.112,49.986c0.025-0.04-0.879-0.541-0.879-0.541"/>
			<path fill="#52616B" d="M211.759,53.16l-2.311-1.422l5.65-0.124c0.04-0.062-3.685-2.241-3.673-2.26"/>
			<path fill="#52616B" d="M205.461,54.726c0,0-5.116-3.077-5.083-3.128c0.035-0.054,7.305,1.285,7.331,1.244l-4.506-2.773"/>
			<path fill="#52616B" d="M198.154,60.048c0,0-2.914-1.707-2.875-1.769"/>
			<path fill="#52616B" d="M199.489,59.29c0.002-0.003-0.973-0.553-0.952-0.586"/>
			<path fill="#52616B" d="M209.908,66.438c0.09-0.143-10.938-6.731-10.938-6.731c0.044-0.068,7.208,0.485,7.342,0.274
				c0.177-0.279-8.351-5.139-8.351-5.139l11.107,2.262l-3.673-2.26l10.528,1.503c0.098-0.155-4.189-2.42-4.117-2.533"/>
			<path fill="#52616B" d="M229.817,62.452c0.049-0.077-3.447-2.121-3.447-2.121"/>
			<path fill="#52616B" d="M234.193,65.035c0.062-0.098-3.139-1.932-3.139-1.932"/>
			<path fill="#52616B" d="M227.289,65.891c0,0-2.924-1.775-2.913-1.792"/>
			<path fill="#52616B" d="M215.872,66.954c0,0-0.522-0.272-0.5-0.307c0,0,8.71,1.068,8.716,1.059l-5.099-3.138"/>
			<path fill="#52616B" d="M205.21,75.858c0,0-8.358-4.829-8.214-5.055c0,0,16.703,6.388,16.803,6.229l-20.184-12.421
				c0.28-0.442,27.04,12.813,27.04,12.813c0.384-0.604-27.24-16.163-26.965-16.594l32.224,14.828c0,0-10.832-6.231-10.634-6.544
				l13.44,4.988c0.03-0.048-8.977-5.505-8.968-5.519c0,0,12.983,4.016,13.179,3.707l-12.19-7.502c0.178-0.28,9.44,1.823,9.44,1.823
				c0.034-0.053-0.9-0.553-0.9-0.553l3.439-1.048c0,0-6.032-3.66-6.008-3.697c0.141-0.223,8.891,2.338,8.891,2.338
				c0.007-0.011-1.723-1.058-1.722-1.06c0,0,0.964-3.746,1.001-3.805c0.327-0.516-18.665-11.146-18.51-11.391
				c0,0,15.562,6.617,15.832,6.192c0.146-0.23-8.324-5.122-8.324-5.122"/>
			<path fill="#52616B" d="M145.255,97.412c0.034-0.053-22.97-14.135-22.97-14.135"/>
			<path fill="#52616B" d="M149.2,94.257c0.14-0.221-19.034-11.713-19.034-11.713"/>
			<path fill="#52616B" d="M143.16,94.526c0.273-0.431-18.744-11.535-18.744-11.535"/>
			<path fill="#52616B" d="M148.458,98.334c0.06-0.095-3.573-2.184-3.566-2.195"/>
			<path fill="#52616B" d="M150.718,101.381c0,0-3.667-2.161-3.623-2.229"/>
			<path fill="#52616B" d="M117.857,86.387c0,0-3.606-2.116-3.559-2.19l8.484,1.694l-3.633-2.236"/>
			<line fill="#52616B" x1="118.802" y1="86.82" x2="118.536" y2="86.656"/>
			<path fill="#52616B" d="M106.615,100.95c0.004-0.006-5.555-3.419-5.555-3.419s11.527,2.546,11.617,2.402
				c0.086-0.136-11.309-6.417-11.061-6.807c0.21-0.332,13.209,3.372,13.209,3.372l-10.214-6.285c0,0,12.781,4.242,12.849,4.135
				l-9.196-5.659c0.149-0.236,12.139,3.434,12.24,3.277c0.169-0.265-9.457-5.405-9.268-5.703l14.691,4.853
				c0,0-6.152-3.505-6.024-3.707"/>
			<path fill="#52616B" d="M142.821,106.927c0.027-0.043-3.12-1.92-3.12-1.92s5.806-0.56,5.881-0.677
				c0.089-0.141-5.122-3.152-5.122-3.152"/>
			<path fill="#52616B" d="M147.736,106.031c0.025-0.039-1.084-0.666-1.083-0.667"/>
			<path fill="#52616B" d="M148.07,106.527c0.02-0.032-0.281-0.156-0.273-0.168"/>
			<path fill="#52616B" d="M145.709,108.928c0,0-0.464-0.249-0.448-0.276"/>
			<path fill="#52616B" d="M146.705,109.918c0,0-1.206-0.657-1.168-0.719"/>
			<path fill="#52616B" d="M142.118,113.745l-7.23-4.449l11.114,2.677c0,0-8.044-4.876-8.011-4.93"/>
			<path fill="#52616B" d="M121.737,94.785l-0.384-0.236c0.01-0.015,4.718-0.403,4.741-0.439c0.002-0.003-1.498-0.922-1.498-0.922"
				/>
			<path fill="#52616B" d="M117.505,99.213c0.007-0.011-0.705-0.434-0.705-0.434c0.045-0.07,2.306-1.777,2.335-1.823
				c0.038-0.06-1.103-0.679-1.103-0.679l5.271-0.32c0,0-1.584-0.964-1.579-0.972"/>
			<path fill="#52616B" d="M116.274,104.295c0.035-0.055-2.453-1.477-2.439-1.501c0,0,7.324-0.186,7.433-0.358
				c0,0-6.267-3.641-6.169-3.796c0.134-0.211,7.491,1.196,7.491,1.196s-2.125-1.285-2.115-1.302l5.926-0.599
				c0.048-0.075-2.422-1.384-2.373-1.46l7.306,0.739l-5.449-3.353c0.067-0.106,7.416,0.657,7.443,0.615l-0.627-0.386"/>
			<path fill="#52616B" d="M105.957,107.611c0.102-0.159-5.218-3.064-5.151-3.17"/>
			<path fill="#52616B" d="M112.972,116.241c0,0-8.619-4.937-8.451-5.201c0.34-0.536,19.457,7.944,19.457,7.944
				c0.264-0.416-16.662-9.808-16.458-10.128c0.218-0.344,19.841,9.426,19.993,9.187c0.322-0.507-28.922-16.479-28.32-17.428
				c0.142-0.223,33.169,17.004,33.169,17.004S100.203,98.58,100.546,98.04c0,0,37.136,18.258,37.349,17.923
				c0.188-0.297-10.036-5.835-9.881-6.081c0.052-0.082,15.103,4.574,15.21,4.407c0,0-1.606-0.975-1.6-0.985
				c0.038-0.058,4.605-1.125,4.605-1.125s-0.778-0.467-0.773-0.475l3.346-2.402c0.037-0.057-2.187-1.233-2.135-1.314
				c0.023-0.036,5.768-1.544,5.768-1.544c0.011-0.017-3.98-2.45-3.98-2.45l5.101-0.764c0.015-0.024-1.802-1.109-1.802-1.109
				c0.048-0.076,1.042-2.696,1.042-2.696c0.009-0.015-1.587-0.956-1.577-0.971c0.042-0.065,0.255-3.565,0.255-3.565
				c0.045-0.07-1.074-0.6-1.047-0.644"/>
			<polyline fill="#52616B" points="38.216,204.894 36.88,204.071 41.339,203.238 39.793,202.286 			"/>
			<path fill="#52616B" d="M342.588,51.044l-5.415-3.332c0.049-0.076,10.02,3.039,10.02,3.039s-5.211-3.116-5.169-3.181"/>
			<path fill="#52616B" d="M348.32,53.7l-2.992-1.841c0.226-0.356,12.593,3.008,12.62,2.968c0.124-0.194-12.327-7.586-12.327-7.586"
				/>
			<path fill="#52616B" d="M327.106,60.046c0.026-0.042-5.007-3.046-4.991-3.071c0,0,7.37,0.3,7.421,0.22
				c0,0-4.589-2.813-4.584-2.821"/>
			<path fill="#52616B" d="M259.392,90.909c0.062-0.098-5.479-3.251-5.424-3.338c0.04-0.062,6.572,0.32,6.65,0.197
				c0,0-4.766-2.699-4.66-2.868c0,0,9.516,1.597,9.623,1.429c0.006-0.01-5.68-3.495-5.68-3.495l7.483,1.171c0,0-5-2.916-4.926-3.031
				"/>
			<path fill="#52616B" d="M259.971,91.003c0.019-0.031-1.171-0.679-1.151-0.709c0,0,3.908-0.889,3.977-0.997
				c0.004-0.006-1.525-0.939-1.525-0.939l4.736-1.43c0.008-0.012-0.534-0.329-0.534-0.329l6.487-1.145
				c0.15-0.236-8.062-4.961-8.062-4.961"/>
			<line fill="#52616B" x1="252.391" y1="101.069" x2="245.363" y2="96.744"/>
			<path fill="#52616B" d="M243.499,106.948l-6.547-4.029c0.075-0.119,10.113,2.762,10.113,2.762l-6.14-3.778"/>
			<path fill="#52616B" d="M211.771,109.889l-5.819-3.581l11.56,2.901c0,0-5.325-3.161-5.272-3.244
				c0.143-0.225,11.305,3.238,11.386,3.11l-5.415-3.332c0,0,11.994,3.672,12.072,3.549c0.088-0.14-5.357-3.297-5.357-3.297
				l10.994,2.202l-4.614-2.839"/>
			<path fill="#52616B" d="M234.505,112.401c0,0-4.941-3.028-4.935-3.037"/>
			<path fill="#52616B" d="M193.556,122.319c0.022-0.034-5.193-3.109-5.153-3.171c0.05-0.078,5.803,0.312,5.827,0.275
				c0,0-4.66-2.836-4.646-2.859c0.027-0.043,6.301,0.279,6.301,0.279s-3.779-2.266-3.752-2.309c0.101-0.158,5.806-1.591,5.806-1.591
				l-3.182-1.958c0,0,5.837-0.122,5.851-0.144c0.079-0.124-3.93-2.318-3.884-2.39"/>
			<path fill="#52616B" d="M199.246,114.992c0.018-0.029-0.435-0.21-0.408-0.251c0,0,2.832-1.502,2.861-1.548l-1.523-0.938"/>
			<path fill="#52616B" d="M202.578,114.47c0.007-0.011-0.875-0.539-0.875-0.539s3.487-2.256,3.547-2.349
				c0.041-0.065-6.247-3.844-6.247-3.844"/>
			<path fill="#52616B" d="M202.531,114.261l-0.028-0.018c0.046-0.072,4.458-1.337,4.458-1.337c0.006-0.009-0.906-0.546-0.901-0.554
				c0,0,6.334,0.902,6.404,0.79c0.174-0.274-9.662-5.726-9.562-5.884"/>
			<polyline fill="#52616B" points="196.849,122.26 193.905,120.448 198.5,119.647 196.166,118.21 200.821,115.951 199.018,114.841 
							"/>
			<path fill="#52616B" d="M190.813,130.122l-4.178-2.572l5.588,0.261c0.001-0.002-4.96-2.927-4.903-3.017l5.406-1.582l-5.179-3.187
				"/>
			<path fill="#52616B" d="M191.474,131.19c0,0-5.98-3.585-5.936-3.653c0.088-0.139,7.98,0.062,7.98,0.062
				c0.016-0.025-0.524-0.322-0.524-0.322c0.076-0.12,2.545-3.26,2.545-3.26s-2.328-1.373-2.301-1.416"/>
			<path fill="#52616B" d="M194.753,132.713c0.007-0.012-1.061-0.595-1.035-0.637c0,0,1.574-3.419,1.578-3.427
				c0,0-0.497-0.286-0.487-0.3"/>
			<path fill="#52616B" d="M121.401,163.775c0.031-0.05-2.366-1.314-2.301-1.416c0,0,5.089-0.746,5.121-0.796l-3.205-1.972
				c0.052-0.082,4.67-1.489,4.745-1.608c0.025-0.04-3.883-2.389-3.883-2.389s5.337-0.569,5.375-0.627c0,0-3.487-2.126-3.478-2.14
				c0.016-0.026,4.681-1.836,4.681-1.836l-2.852-1.755l5.918,0.262c0.043-0.067-4.282-2.631-4.28-2.634c0,0,6.519,0.223,6.584,0.12
				l-3.07-1.889c0.08-0.127,5.347-0.342,5.347-0.342c0.01-0.017-2.981-1.835-2.981-1.835l8.587,0.354l-3.417-2.102l7.402,1.17
				c0.026-0.041-3.562-1.994-3.472-2.137c0.081-0.128,7.564,1.837,7.703,1.617c0,0-4.227-2.437-4.152-2.555
				c0,0,9.837,3.034,9.982,2.806c0.09-0.143-4.92-3.027-4.92-3.027c0.263-0.414,14.337,4.099,14.375,4.039
				c0,0-5.344-3.237-5.321-3.274c0.027-0.044,11.853,2.924,11.853,2.924c0.055-0.087-4.672-2.875-4.672-2.875
				c0.068-0.107,8.725,1.926,8.725,1.926s-4.304-2.517-4.244-2.612l7.794,1.545c0.062-0.097-3.909-2.283-3.854-2.371
				c0,0,7.338,0.716,7.423,0.583l-3.633-2.236c0.089-0.14,8.824,1.024,8.849,0.984c0.068-0.107-5.161-3.149-5.149-3.169"/>
			<path fill="#52616B" d="M186.982,142.325c0.061-0.096-2.954-1.818-2.954-1.818c0.064-0.101,5.14-0.207,5.198-0.297
				c0.013-0.02-1.466-0.902-1.466-0.902"/>
			<path fill="#52616B" d="M166.087,144.397l-1.891-1.163c0,0,9.183,0.81,9.332,0.575c0.042-0.065-1.386-0.768-1.347-0.829
				c0.019-0.03,7.198,0.2,7.198,0.2c0.043-0.067-1.239-0.74-1.229-0.756"/>
			<line fill="#52616B" x1="164.538" y1="146.01" x2="161.018" y2="143.843"/>
			<path fill="#52616B" d="M153.171,144.061c0,0-1.82-1.097-1.809-1.113"/>
			<path fill="#52616B" d="M152.302,146.413c0,0-4.771-2.806-4.712-2.9"/>
			<path fill="#52616B" d="M141.201,143.661c0.002-0.003-0.122-0.049-0.11-0.068"/>
			<path fill="#52616B" d="M138.295,146.883c0.018-0.028-1.442-0.887-1.442-0.887c0.095-0.151,6.316-1.101,6.336-1.134l-0.649-0.399
				"/>
			<path fill="#52616B" d="M137.833,148.365c0.057-0.09-3.289-2.024-3.289-2.024s8.659,0.903,8.731,0.79
				c0.015-0.024-1.912-1.168-1.908-1.174"/>
			<path fill="#52616B" d="M132.616,154.311c0.063-0.099-2.564-1.578-2.564-1.578"/>
			<path fill="#52616B" d="M126.191,158.407c0,0-0.348-0.211-0.346-0.213c0.052-0.082,2.065-2.283,2.123-2.374l-0.061-0.037"/>
			<path fill="#52616B" d="M122.512,169.842c0,0-5.999-3.567-5.942-3.657l7.832,1.59c0.019-0.03-6.846-4.002-6.749-4.154
				c0.042-0.065,8.364,1.511,8.364,1.511s-1.972-1.099-1.92-1.181"/>
			<path fill="#52616B" d="M87.837,172.686c0,0-3.322-1.922-3.266-2.01c0.05-0.078,10.607,1.627,10.607,1.627
				c0.051-0.08-1.647-1.013-1.647-1.013c0.01-0.016,9.957,1.325,9.984,1.283c0.005-0.007-3.979-2.421-3.967-2.441
				c0,0,7.905,1.717,7.906,1.715c0.038-0.06-3.091-1.901-3.09-1.902c0.06-0.095,8.163,0.971,8.163,0.971l-2.046-1.259
				c0,0,5.085-0.534,5.178-0.679c0.011-0.018-1.792-1.103-1.792-1.103"/>
			<path fill="#52616B" d="M103.842,174.52c0.005-0.008-1.994-1.227-1.994-1.227"/>
			<path fill="#52616B" d="M82.163,175.944c0.054-0.086-6.346-3.906-6.346-3.906s12.322,3.597,12.327,3.588l-6.241-3.84"/>
			<path fill="#52616B" d="M63.131,182.383c0.041-0.064-2.782-1.712-2.782-1.712c0.025-0.04,4.158-0.938,4.18-0.974
				c0.025-0.041-1.394-0.833-1.383-0.851l5.703-0.904c0.049-0.077-1.725-1.022-1.707-1.05c0,0,5.54-0.511,5.584-0.579
				c0.027-0.044-2.653-1.551-2.616-1.61"/>
			<path fill="#52616B" d="M52.444,190.945c0.062-0.098-3.051-1.876-3.05-1.877"/>
			<path fill="#52616B" d="M32.022,208.193c0,0-0.169-0.103-0.168-0.103c0,0,4.306-1.956,4.38-2.072l-0.325-0.2
				c0,0,3.953-1.619,3.982-1.665l-0.503-0.309c0.065-0.102,4.11-0.644,4.112-0.646c0.018-0.028-1.14-0.696-1.138-0.7
				c0,0,3.308-0.984,3.331-1.019c0.017-0.027-1.335-0.822-1.335-0.822c0.045-0.071,3.322-1.937,3.322-1.937
				c0-0.001-1.564-0.962-1.564-0.962c0.007-0.011,5.522-1.047,5.583-1.142c0,0-1.283-0.753-1.266-0.779c0,0,2.715-2.066,2.738-2.102
				c0,0-0.499-0.263-0.478-0.294l2.974-1.726c0.017-0.028-0.19-0.117-0.19-0.117c0.069-0.108,2.617-3.323,2.617-3.323
				c0.005-0.008-4.604-2.833-4.604-2.833s8.758,0.902,8.914,0.656c0.094-0.149-5.418-3.288-5.397-3.321
				c0.052-0.082,8.626,0.613,8.715,0.473c0.014-0.023-1.225-0.674-1.188-0.731l3.558-0.995c0.001-0.002-1.635-1.006-1.635-1.006
				c0.002-0.002,3.587-0.908,3.587-0.908s-1.428-0.861-1.42-0.874c0.077-0.121,4.846-0.726,4.846-0.726
				c0.028-0.044-0.819-0.487-0.811-0.499c0.1-0.156,5.851,0.035,5.931-0.091c0,0-6.205-3.696-6.149-3.784
				c0.113-0.178,10.693,3.625,10.801,3.456c0.002-0.004-1.569-0.953-1.563-0.962c0,0,8.93,0.569,8.982,0.486
				c0.001-0.002-1.562-0.958-1.56-0.96c0.051-0.079,7.617,0.047,7.617,0.047c0.025-0.04-4.316-2.562-4.273-2.629
				c0.178-0.28,13.005,3.192,13.032,3.15l-3.995-2.458c0.132-0.208,7.915,1.048,8.032,0.864c0.065-0.102-3.704-2.247-3.689-2.27
				c0.073-0.115,8.681,2.228,8.681,2.228c0.081-0.129-4.505-2.772-4.505-2.772c0.089-0.141,8.429,1.434,8.576,1.202l-4.601-2.831
				c0.085-0.134,7.431,0.998,7.533,0.837c0.028-0.044-5.907-3.427-5.812-3.577c0,0,9.048,0.801,9.06,0.784
				c0.005-0.007-0.085-0.029-0.075-0.046l3.211-3.172c0.011-0.018-4.595-2.827-4.595-2.827s5.606-0.172,5.635-0.216l-2.381-1.466
				c0,0,4.186-1.034,4.213-1.077c0.057-0.09-3.013-1.854-3.013-1.854s3.803-1.712,3.815-1.73c0.053-0.084-1.967-1.19-1.957-1.204
				c0.065-0.102,3.966-1.221,3.984-1.251l-0.214-0.132c0.051-0.079,3.306-2.975,3.306-2.975s-4.046-2.45-4.028-2.479l8.761,0.766
				c0,0-0.838-0.513-0.837-0.515c0.013-0.021,6.479-0.643,6.479-0.643l-0.838-0.516c0,0,8.449,0.53,8.582,0.321
				c0,0-0.045-0.011-0.037-0.023c0.004-0.006,5.788,0.001,5.815-0.044c0.044-0.069-3.376-2.078-3.376-2.078
				c0.042-0.066,11.132,2.669,11.268,2.454l-1.54-0.948c0.082-0.13,8.636,0.617,8.636,0.617l-3.022-1.859
				c0,0,8.077,0.717,8.167,0.574c0.002-0.004-3.109-1.913-3.109-1.913s9.035,0.507,9.065,0.461c0,0-4.767-2.878-4.742-2.918
				c0.032-0.051,7.49,1.032,7.49,1.032s-1.397-0.822-1.38-0.849l3.159-1.26c0.017-0.027-0.479-0.295-0.479-0.295
				s3.014-2.006,3.026-2.024c0.065-0.103-9.331-5.742-9.331-5.742s9.95,2.827,10.091,2.605c0,0-9.278-5.567-9.213-5.67
				c0,0,10.891,3.574,11.088,3.264l-0.722-0.444c0.007-0.011,2.243-1.715,2.243-1.715s-0.993-0.605-0.991-0.61
				c0.024-0.038,1.127-2.33,1.157-2.376c0,0-0.176-0.048-0.148-0.091c0.013-0.022,1.446-3.582,1.446-3.582s-1.72-1.039-1.711-1.053
				c0.03-0.048,3.109-1.653,3.109-1.653c0.011-0.018-1.465-0.902-1.465-0.902c0.069-0.108,3.628-2.683,3.657-2.727
				c0.016-0.026-0.445-0.274-0.445-0.274c0.023-0.037,2.771-2.275,2.773-2.278c0.03-0.048-1.704-1.049-1.704-1.049
				c0.064-0.1,7.056-0.051,7.083-0.093l-1.442-0.887c0,0,10.414,1.662,10.438,1.624c0.156-0.246-6.743-4.104-6.722-4.137
				c0-0.001,11.262,3.658,11.298,3.602c0,0-6.059-3.579-5.99-3.686c0,0,10.858,3.601,10.866,3.589
				c0.049-0.077-5.467-3.364-5.467-3.364s11.241,2.705,11.338,2.552c0.006-0.009-0.68-0.419-0.68-0.419
				c0.049-0.078,5.916,0.02,5.916,0.02s-6.132-3.555-6.033-3.712l10.5,1.34l-10.083-6.205c0,0,13.588,5.324,13.625,5.267
				c0.055-0.087-3.012-1.808-2.99-1.84l5.05-0.977l-8.48-5.218c0,0,11.154,3.85,11.26,3.682c0,0-10.843-6.243-10.647-6.552
				c0.185-0.292,12.627,3.634,12.627,3.634s-1.497-0.904-1.489-0.916c0.067-0.106,5.16-1.975,5.16-1.975
				c0.098-0.156-9.508-5.785-9.479-5.833c0.196-0.309,11.92,2.304,11.92,2.304c0.029-0.046-10.001-6.155-10.001-6.155
				s13.714,3.609,13.83,3.426c0.022-0.036-3.858-2.278-3.813-2.347c0.077-0.121,5.832-0.003,5.832-0.003
				c0.001-0.002-2.508-1.486-2.482-1.527c0.059-0.093,4.932-0.707,4.932-0.707l-1.551-0.954l5.344-0.023
				c0.003-0.005-2.448-1.478-2.435-1.498l6.745,0.759c0.226-0.356-10.814-6.158-10.588-6.515l14.363,5.734
				c0.202-0.319-11.198-6.891-11.198-6.891c0.184-0.289,17.03,6.965,17.047,6.938c0.069-0.108-11.851-7.293-11.851-7.293
				c0.068-0.107,18.883,7.301,18.883,7.301c0.017-0.028-13.211-8.035-13.168-8.103c0.127-0.199,19.14,8.48,19.358,8.136
				c0.111-0.175-14.512-8.593-14.358-8.836c0.212-0.334,20.533,9.172,20.808,8.739c0.02-0.033-14.229-8.237-13.992-8.611
				c0.257-0.405,17.193,7.181,17.193,7.181c0.053-0.083-12.1-7.324-12.045-7.412c0.02-0.047,18.47,6.396,18.47,6.396
				c0.168-0.264-12.103-7.448-12.103-7.448c0.188-0.297,14.603,4.704,14.603,4.704c0.023-0.038-9.592-5.902-9.592-5.902
				c0.197-0.311,11.984,4.242,11.984,4.242c0.074-0.117-9.485-5.837-9.485-5.837s12.986,3.277,12.994,3.265
				c0.106-0.166-10.593-6.519-10.593-6.519s12.478,4.428,12.675,4.117c0,0-11.199-6.541-11.039-6.793c0,0,12.361,3.694,12.472,3.518
				c0.003-0.005-10.833-6.667-10.833-6.667c0.204-0.321,13.145,3.946,13.145,3.946l-10.072-6.198c0,0,11.581,2.107,11.621,2.042
				c0,0-9.942-6.01-9.892-6.088l12.5,3.38c0.093-0.146-4.358-2.682-4.358-2.682c0.041-0.064,7.169,0.007,7.23-0.089
				c0,0-10.257-5.938-10.086-6.207c0.002-0.003,12.411,4.199,12.411,4.199l-9.794-6.027c0.068-0.108,15.711,5.607,15.711,5.607
				s-11.339-6.835-11.274-6.938c0.261-0.412,19.756,7.661,19.756,7.661c0.111-0.174-3.912-2.407-3.912-2.407
				c0.057-0.09,12.769,3.285,12.769,3.285s-3.217-1.838-3.153-1.94c0.044-0.069,10.373,2.111,10.416,2.044
				c0.302-0.475-16.15-9.939-16.15-9.939s19.657,9.518,19.886,9.158c0.203-0.319-12.724-7.83-12.724-7.83
				c0.225-0.355,16.947,5.816,16.947,5.816s-8.934-5.147-8.773-5.399c0,0,12.651,4.099,12.757,3.931
				c0.114-0.179-9.299-5.723-9.299-5.723c0.079-0.125,11.157,3.835,11.224,3.73c0.077-0.122-9.509-5.852-9.509-5.852
				c0.022-0.036,11.35,3.329,11.421,3.217l-8.618-5.303c0.019-0.03,11.369,2.512,11.369,2.512l-10.27-6.32
				c0,0,12.091,3.062,12.161,2.951l-9.709-5.975c0.047-0.073,10.188,2.267,10.303,2.084l-8.964-5.516c0,0,11.653,4.167,11.731,4.043
				c0.009-0.015-9.874-6.076-9.874-6.076l11.746,2.335c0.111-0.175-9.035-5.157-8.851-5.447c0.161-0.255,11.511,3.514,11.511,3.514
				c0.142-0.225-7.81-4.741-7.78-4.788c0.221-0.349,13.767,3.714,13.767,3.714s-10.107-6.018-10.016-6.163
				c0,0,15.408,5.439,15.528,5.25c0.083-0.131-8.982-5.437-8.941-5.502l15.437,5.082c0.111-0.174-10.551-6.493-10.551-6.493
				c0.036-0.055,16.561,6.518,16.841,6.077c0.071-0.112-10.819-6.658-10.819-6.658l17.799,6.51c0.23-0.362-9.99-6.147-9.99-6.147
				s14.653,5.187,14.67,5.162c0,0-9.175-5.535-9.125-5.615c0.242-0.381,13.709,4.355,13.846,4.139
				c0.087-0.138-8.607-5.272-8.595-5.289c0.03-0.048,13.132,3.155,13.132,3.155c0.172-0.27-7.471-4.338-7.353-4.525
				c0.209-0.329,11.608,2.968,11.608,2.968s-6.546-3.679-6.387-3.931c0.062-0.098,9.146,1.276,9.146,1.276
				c0.126-0.198-6.365-3.917-6.365-3.917c0.053-0.083,7.774,0.827,7.774,0.827c0.005-0.009-5.181-2.983-5.086-3.13
				c0.012-0.019,6.157,0.717,6.157,0.717s-6.695-3.984-6.633-4.082l4.681-1.397c0.031-0.05-2.809-1.536-2.721-1.674"/>
			<path fill="#52616B" d="M11.232,207.592c0,0-1.181-0.642-1.142-0.703c0.064-0.101,8.792,1.095,8.792,1.095
				c0.012-0.019-1.958-1.101-1.91-1.176"/>
			<path fill="#52616B" d="M8.699,208.75c0,0-1.484-0.856-1.457-0.897l9.968,2.27c0.031-0.049-2.356-1.45-2.356-1.45
				c0.079-0.125,7.189,0.607,7.189,0.607c0.01-0.015-0.317-0.195-0.317-0.195l6.377-0.537l-3.58-2.204c0,0,7.559,0.489,7.655,0.338
				c0.014-0.023-3.362-2.069-3.362-2.069c0.037-0.058,6.201-0.112,6.201-0.112l-2.6-1.6l6.544,0.123
				c0.001-0.002-3.782-2.303-3.771-2.321c0.046-0.072,6.72-0.793,6.72-0.793s-2.308-1.376-2.288-1.408
				c0.103-0.162,5.551-1.352,5.551-1.352l-2.588-1.593c0,0,7.962,0.032,8.018-0.056c0.002-0.002-3.496-2.1-3.473-2.137
				c0.027-0.043,6.329-1.136,6.329-1.136l-4.149-2.553l6.576,0.967c0.005-0.009-1.684-1.021-1.676-1.032"/>
			<path fill="#52616B" d="M482.415,55.158c0.003-0.005-0.558-0.344-0.558-0.344l5.882,0.206c0,0-0.99-0.572-0.973-0.599
				c0.047-0.074,6.651,0.425,6.651,0.425c0.004-0.006-0.516-0.318-0.516-0.318"/>
			<path fill="#52616B" d="M459.746,58.626c0.007-0.012-1.304-0.802-1.304-0.802c0.059-0.093,6.874-0.854,6.874-0.854l-0.438-0.27
				c0.013-0.021,4.067-0.992,4.078-1.009c0.007-0.011-0.73-0.436-0.724-0.445"/>
			<path fill="#52616B" d="M441.751,66.772c0.017-0.027-0.794-0.489-0.794-0.489s4.387-1.908,4.399-1.927
				c0.011-0.017-0.217-0.119-0.21-0.129c0,0,3.102-1.261,3.139-1.32c0,0-0.727-0.441-0.724-0.446"/>
			<path fill="#52616B" d="M449.319,64.099c0.012-0.019-1.065-0.648-1.062-0.653c0,0,3.394-2.029,3.423-2.076l-0.563-0.346
				l4.069-0.716l-0.54-0.332c0,0,5.126-1.566,5.211-1.701c0.003-0.005-0.421-0.259-0.421-0.259c0.068-0.108,4.839-0.21,4.839-0.21
				l-1.347-0.829"/>
			<path fill="#52616B" d="M443.027,67.691c0,0-1.66-1.012-1.656-1.019"/>
			<path fill="#52616B" d="M425.941,82.92c0,0-2.52-1.471-2.484-1.529c0,0,4.588-0.281,4.668-0.408
				c0.014-0.022-2.102-1.189-2.054-1.264l4.223-2.446c0.003-0.004-0.842-0.494-0.832-0.512c0.07-0.11,3.217-2.019,3.248-2.07
				c0,0-1.514-0.863-1.482-0.912"/>
			<polyline fill="#52616B" points="412.922,87.046 411.211,85.993 418.703,85.651 417.246,84.755 			"/>
			<line fill="#52616B" x1="401.195" y1="88.402" x2="398.335" y2="86.642"/>
			<path fill="#52616B" d="M390.522,93.096c0.027-0.042-2.905-1.787-2.905-1.787l5.915-0.41c0.001-0.001-2.181-1.342-2.181-1.342
				c0.096-0.151,7.295-0.109,7.295-0.109c0.092-0.146-3.94-2.325-3.895-2.397c0,0,12.175,3,12.377,2.682
				c0.084-0.133-5.08-3.126-5.08-3.126c0.003-0.005,10.323,2.561,10.36,2.502c0.062-0.098-3.234-1.99-3.234-1.99"/>
			<path fill="#52616B" d="M383.077,98.515c0.008-0.013-1.443-0.883-1.441-0.887l2.68-1.949c0.007-0.011-0.201-0.113-0.196-0.121"/>
			<path fill="#52616B" d="M381.715,108.522c0.063-0.1-2.467-1.444-2.433-1.497c0.046-0.072,3.545-0.929,3.561-0.955l-2.541-1.563"
				/>
			<path fill="#52616B" d="M378.435,110.48c0,0-1.769-1.057-1.755-1.08"/>
			<path fill="#52616B" d="M363.581,115.063l-0.15-0.092c0.005-0.008,5.891-0.552,5.979-0.688c0.002-0.004-0.414-0.255-0.414-0.255
				l3.701-1.182c0.001-0.002-0.512-0.314-0.512-0.315"/>
			<path fill="#52616B" d="M364.286,116.365l-2.598-1.599c0.109-0.171,7.914,0.955,7.914,0.955c0.036-0.056-1.434-0.882-1.434-0.882
				"/>
			<line fill="#52616B" x1="367.376" y1="117.822" x2="366.62" y2="117.357"/>
			<path fill="#52616B" d="M355.359,115.41c0.004-0.006-0.109-0.065-0.108-0.066"/>
			<path fill="#52616B" d="M352.305,118.239c0.042-0.065-2.879-1.711-2.851-1.754c0.11-0.173,7.312,0.988,7.312,0.988
				c0.048-0.076-1.751-0.995-1.714-1.054"/>
			<path fill="#52616B" d="M343.122,117.758c0.038-0.059-1.602-0.919-1.572-0.968"/>
			<path fill="#52616B" d="M333.276,121.832l-2.635-1.621c0.022-0.035,6.494,0.308,6.536,0.24c0,0-2.255-1.351-2.239-1.378
				c0.071-0.111,6.117,0.658,6.117,0.658c0.005-0.009-2.574-1.519-2.544-1.566"/>
			<path fill="#52616B" d="M321.828,124.731l-0.729-0.448c0.065-0.102,3.856-0.857,3.902-0.93c0.008-0.013-0.507-0.312-0.507-0.312"
				/>
			<path fill="#52616B" d="M324.071,126.774l-2.642-1.626c0,0,8.818,0.747,8.965,0.514c0.081-0.128-3.864-2.378-3.864-2.378
				c0.028-0.045,7.559-0.098,7.641-0.228c0.079-0.124-4.875-3-4.875-3s10.227,2.357,10.325,2.204l-1.997-1.229
				c0.026-0.042,6.141,0.622,6.165,0.584c0.022-0.035-1.854-1.141-1.854-1.141l7.85,0.407l-4.659-2.867c0,0,7.012,1.326,7.11,1.172
				c0,0-3.692-2.143-3.633-2.236c0.121-0.19,8.876,2.341,8.876,2.341s-1.944-1.156-1.925-1.185l8.318,1.425
				c0.091-0.144-5.028-2.959-4.966-3.056c0.017-0.028,9.634,1.744,9.792,1.496c0,0-0.06-0.033-0.059-0.036
				c0.045-0.07,5.934-1.339,5.946-1.358c0.034-0.053-2.491-1.471-2.462-1.515c0.098-0.155,5.662-1.385,5.662-1.385
				c0.071-0.112-2.646-1.625-2.644-1.627l6.092-1.234c0,0-2.266-1.32-2.232-1.374l4.591-0.968c0.006-0.009-0.316-0.194-0.316-0.194
				c0.056-0.087,1.464-3.165,1.464-3.165s-0.289-0.176-0.288-0.177l0.913-4.217c0,0-4.147-2.463-4.106-2.527"/>
			<path fill="#52616B" d="M313.202,134.737l-0.713-0.438c0.018-0.03,2.904-2.764,2.904-2.764s-0.672-0.371-0.653-0.402l2.901-1.31
				c0,0-0.953-0.555-0.939-0.578"/>
			<path fill="#52616B" d="M303.952,145.953c0.007-0.01-1.082-0.649-1.074-0.661c0.063-0.099,2.513-2.554,2.513-2.554
				c0.003-0.005-0.262-0.161-0.262-0.161l4.494-1.867c0,0-1.085-0.667-1.084-0.668c0.043-0.068,2.307-1.88,2.313-1.889
				c0.014-0.023-0.814-0.456-0.794-0.489c0,0,4.863-1.407,4.915-1.489c0.006-0.01-1.574-0.969-1.574-0.969
				c0.068-0.108,4.476-1.615,4.476-1.615s-2.143-1.263-2.117-1.303l2.865-1.68c0.014-0.022-1.012-0.619-1.01-0.622"/>
			<path fill="#52616B" d="M315.58,138.775c0.016-0.026-0.99-0.569-0.972-0.598l2.879-1.877c0.016-0.025-1.532-0.913-1.518-0.934
				l3.665-2.228l-0.721-0.443"/>
			<path fill="#52616B" d="M300.164,149.376c0.035-0.054-1.965-1.123-1.925-1.185c0.023-0.036,3.802-0.858,3.802-0.858l-0.178-0.11"
				/>
			<path fill="#52616B" d="M292.793,151.183l-0.929-0.572c0,0,6.637-0.73,6.662-0.77c0,0-0.944-0.559-0.934-0.575"/>
			<path fill="#52616B" d="M298.712,150.837l-1.172-0.721c0,0,5.376-1.005,5.423-1.081c0.002-0.003-1.479-0.91-1.479-0.91"/>
			<path fill="#52616B" d="M305.487,148.368l-1.685-1.037c0.023-0.037,2.631-1.79,2.675-1.86c0,0-0.473-0.283-0.47-0.289"/>
			<path fill="#52616B" d="M305.892,150.05c0,0-2.526-1.533-2.517-1.549c0,0,4.972-0.25,5.067-0.398c0,0-1.754-1.002-1.718-1.057
				c0.045-0.07,4.429-0.987,4.44-1.005c0,0-4.502-2.706-4.473-2.753c0,0,7.125-0.385,7.249-0.581
				c0.009-0.014-4.769-2.935-4.769-2.935l6.369,0.438c0,0-1.35-0.824-1.347-0.829"/>
			<path fill="#52616B" d="M274.765,154.107c0.007-0.011-0.081-0.013-0.064-0.039"/>
			<path fill="#52616B" d="M275.062,158.518c0.069-0.108-6.76-3.907-6.645-4.089c0.098-0.156,11.404,2.282,11.404,2.282
				c0.077-0.122-3.782-2.172-3.711-2.284c0.019-0.031,9.171,2.205,9.171,2.205l-5.601-3.447c0.19-0.299,10.787,2.674,10.896,2.502
				c0.082-0.13-6.386-3.93-6.386-3.93c0.142-0.225,9.891,2.724,9.891,2.724c0.094-0.149-5.283-3.039-5.187-3.192
				c0,0,8.341,1.697,8.362,1.664c0.066-0.104-2.901-1.785-2.901-1.785"/>
			<path fill="#52616B" d="M264.062,158.003c0.06-0.094-2.183-1.343-2.183-1.343"/>
			<line fill="#52616B" x1="254.605" y1="162.032" x2="251.428" y2="160.078"/>
			<path fill="#52616B" d="M238.552,179.067l-1.624-0.999c0.044-0.069,4.374-0.633,4.401-0.674c0.031-0.05-2.366-1.456-2.366-1.456
				s4.568-2.228,4.602-2.282c0.045-0.071-2.835-1.744-2.835-1.744s5.008-1.779,5.102-1.929c0.03-0.048-2.803-1.725-2.803-1.725"/>
			<path fill="#52616B" d="M242.725,178.587c0,0-1.862-1.139-1.859-1.144c0,0,3.685-2.676,3.735-2.756c0,0-0.178-0.1-0.174-0.107
				c0,0,2.52-3.275,2.583-3.375c0,0-0.673-0.376-0.656-0.404"/>
			<path fill="#52616B" d="M180.046,202.07c0,0-4.256-2.511-4.207-2.589c0,0,6.57-0.33,6.674-0.495l-4.092-2.518"/>
			<path fill="#52616B" d="M158.082,214.815c0.011-0.017-3.469-2.037-3.425-2.107c0.076-0.12,6.874,0.079,6.874,0.079
				c0.016-0.025-2.765-1.701-2.765-1.701c0.108-0.17,6.764-0.505,6.764-0.505l-3.231-1.988"/>
			<path fill="#52616B" d="M166.311,212.354c0.021-0.034-1.169-0.719-1.169-0.719l4.033-1.218c0.095-0.15-4.858-2.786-4.765-2.932"
				/>
			<path fill="#52616B" d="M62.888,263.072c0.029-0.046-2.592-1.595-2.592-1.595l5.371,0.056l-3.366-2.071
				c0.073-0.115,8.799,1.257,8.895,1.105c0.03-0.049-4.747-2.834-4.706-2.897c0,0,10.957,2.084,11.156,1.77
				c0.118-0.185-6.823-4.199-6.823-4.199l10.276,1.988l-6.923-4.26c0.062-0.097,10.393,2.811,10.553,2.557
				c0.097-0.154-7.575-4.661-7.575-4.661c0.147-0.231,10.564,2.989,10.564,2.989c0.042-0.066-6.994-4.126-6.913-4.254
				c0,0,12.233,2.928,12.373,2.708l-8.746-5.382l12.533,3.726c0.019-0.03-8.323-5.122-8.323-5.122l13.121,3.029l-8.556-5.265
				c0.202-0.319,12.871,3.218,12.871,3.218l-9.165-5.64c0.183-0.288,12.252,3.548,12.435,3.26c0,0-8.473-5.149-8.443-5.196
				c0.179-0.281,12.992,3.357,12.992,3.357c0.061-0.096-8.159-4.94-8.122-4.998c0.113-0.178,11.726,4.068,11.756,4.02l-9.057-5.574
				l12.349,3.253l-9.026-5.555l13.788,4.187l-9.083-5.59c0.214-0.337,12.119,3.81,12.119,3.81s-8.811-5.148-8.686-5.345
				c0.037-0.058,12.157,4.16,12.157,4.16c0.157-0.249-9.117-5.552-9.091-5.594c0.081-0.129,12.399,3.654,12.399,3.654
				s-8.552-5.055-8.457-5.204c0,0,13.459,3.389,13.467,3.376l-9.723-5.983c0.147-0.232,13.75,3.842,13.75,3.842l-10.069-6.196
				c0.137-0.216,14.765,4.501,14.765,4.501l-9.895-6.089c0.075-0.119,12.114,3.742,12.114,3.742c0.135-0.213-8.434-5.19-8.434-5.19
				c0.054-0.085,14.247,3.814,14.328,3.687c0.176-0.277-9.511-5.414-9.311-5.73l11.841,3.36l-9.56-5.883l13.943,4.855
				c0.079-0.125-10.415-6.273-10.353-6.371l12.211,4.219l-5.591-3.441l10.421,2.037c0.085-0.135-7.477-4.601-7.477-4.601
				c0.095-0.151,8.977,2.73,9.144,2.467c0,0-3.736-2.112-3.65-2.246c0,0,6.606,0.804,6.711,0.638c0,0-3.958-2.351-3.919-2.412
				c0,0,7.389,0.955,7.391,0.951c0.061-0.096-10.184-6.171-10.14-6.24c0.002-0.003,12.46,3.949,12.46,3.949s-9.075-5.551-9.06-5.575
				l11.536,3.339c0.182-0.286-9.195-5.643-9.187-5.654c0,0,12.113,4.457,12.263,4.221c0.042-0.065-5.129-3.156-5.129-3.156
				c0.007-0.011,8.004,0.298,8.034,0.251c0.02-0.032-5.928-3.561-5.888-3.624c0,0,7.025,0.736,7.033,0.724
				c0.075-0.118-9.478-5.833-9.478-5.833c0.048-0.075,12.918,3.051,12.918,3.051s-10.429-6.057-10.265-6.317
				c0.083-0.132,13.777,3.504,13.838,3.408c0,0-10.364-6.119-10.246-6.305c0.117-0.185,13.312,4.178,13.312,4.178
				s-9.931-5.946-9.856-6.065c0,0,16.034,5.222,16.269,4.853c0,0-11.004-6.754-10.996-6.767l17.322,7.346l-14.69-9.04
				c0,0,21.151,8.944,21.274,8.751c0.046-0.071-14.286-8.791-14.286-8.791l19.718,8.73l-13.918-8.565c0,0,19.727,8.653,19.963,8.281
				c0.155-0.244-12.99-7.994-12.99-7.994l17.446,7.318c0.234-0.367-12.582-7.563-12.5-7.692c0,0,16.195,6.622,16.484,6.167
				c0.154-0.243-10.45-6.431-10.45-6.431c0.07-0.11,12.947,4.854,12.947,4.854s-10.169-6.22-10.152-6.247
				c0,0,13.253,3.5,13.297,3.43c0.143-0.225-6.517-4.01-6.517-4.01c0.033-0.051,9.116,1.054,9.116,1.054
				c0.003-0.005-5.185-2.985-5.091-3.133c0.073-0.116,6.653-0.176,6.653-0.176l-3.819-2.35c0,0,6.847-0.032,6.872-0.071
				l-5.242-3.226l6.622-0.72c0.044-0.069-9.512-5.854-9.512-5.854l12.052,3.974c0,0-10.264-5.989-10.115-6.224
				c0.028-0.044,12.047,3.688,12.047,3.688s-8.928-5.357-8.865-5.455l12.85,3.459c0,0-5.885-3.559-5.857-3.604
				c0.143-0.226,10.18,3.114,10.18,3.114s-9.975-6.066-9.942-6.118c0,0,15.197,5.729,15.43,5.362
				c0.038-0.059-8.306-4.861-8.191-5.041c0,0,13.848,4.083,14.039,3.781c0.028-0.045-12.29-7.562-12.29-7.562
				c0.229-0.362,18.537,6.394,18.594,6.304l-4.445-2.736l9.098,1.389c0.076-0.12-3.682-2.266-3.682-2.266s7.842,1.409,7.882,1.347
				c0,0-3.794-2.259-3.759-2.313c0,0,9.328,1.155,9.363,1.099c0.008-0.013-3.707-2.245-3.691-2.271l6.97,0.461
				c0.168-0.264-7.318-4.503-7.318-4.503c0.188-0.297,12.383,3.663,12.507,3.468c0.051-0.079-6.25-3.846-6.25-3.846
				c0.152-0.24,8.639,1.523,8.747,1.354c0.043-0.067-3.546-2.182-3.546-2.182l6.242,0.034l-3.174-1.954c0,0,4.982-0.885,4.993-0.903
				l-3.436-2.115c0.065-0.102,7.455,0.167,7.572-0.016c0.07-0.111-4.471-2.751-4.471-2.751c0.035-0.055,5.449-1.512,5.449-1.512
				c0.033-0.053-3.855-2.275-3.81-2.345c0.047-0.073,7.474,0.74,7.474,0.74c0.079-0.125-5.262-3.238-5.262-3.238
				c0.067-0.106,7.406,0.025,7.406,0.025c0.011-0.018-4.636-2.853-4.636-2.853s6.033-0.414,6.077-0.485c0,0-8.129-4.726-8.003-4.925
				l10.272,2.416c0.116-0.182-4.483-2.75-4.479-2.756c0,0,7.376,1.408,7.413,1.351c0.003-0.005-2.47-1.407-2.418-1.488
				c0,0,5.29,0.269,5.349,0.176c0,0-3.186-1.819-3.121-1.921c0,0,9.247,0.734,9.266,0.705c0.077-0.122-3.764-2.316-3.764-2.316
				c0.094-0.148,8.16,0.749,8.16,0.749l-3.612-2.223c0.158-0.249,9.26,2.253,9.26,2.253c0.078-0.123-4.979-2.984-4.942-3.042
				c0.119-0.188,9.751,2.362,9.751,2.362c0.024-0.039-4.001-2.462-4.001-2.462c0.059-0.093,8.475,1.268,8.475,1.268
				c0.024-0.038-3.57-2.197-3.57-2.197l9.966,1.27l-4.014-2.47c0.135-0.212,10.206,1.71,10.397,1.409
				c0.031-0.049-3.053-1.879-3.053-1.879c0.031-0.049,6.076,0.594,6.126,0.516c0.011-0.018-3.21-1.87-3.161-1.945
				c0.022-0.035,6.869-0.777,6.869-0.777c0.013-0.02-1.392-0.857-1.392-0.857s4.74-1.367,4.827-1.503
				c0.001-0.002-2.371-1.459-2.371-1.459c0.075-0.119,5.191-0.592,5.191-0.592c0.065-0.102-3.659-2.251-3.659-2.251l4.149-2.035
				c0.015-0.023-2.3-1.415-2.3-1.415c0.036-0.055,3.913-1.337,3.913-1.337s-2.506-1.519-2.495-1.536
				c0.024-0.039,2.935-1.44,2.995-1.536c0,0-2.764-1.644-2.739-1.685c0.009-0.014,4.813-0.964,4.813-0.964
				c0.043-0.068-7.579-4.506-7.507-4.619c0,0,9.096,1.14,9.238,0.916c0,0-6.444-3.954-6.439-3.962
				c0.107-0.168,8.593,1.712,8.593,1.712c0.039-0.06-2.05-1.238-2.039-1.255c0,0,6.683,0.024,6.783-0.133
				c0.024-0.038-1.483-0.781-1.423-0.875c0,0,8.456,0.478,8.528,0.363c0,0-1.313-0.693-1.26-0.776
				c0.17-0.267,9.885,0.988,9.885,0.988c0.059-0.093-2.778-1.67-2.76-1.699l7.795,0.22c0.006-0.01-4.854-2.95-4.837-2.977
				c0.056-0.089,8.572,0.325,8.661,0.185c0,0-4.057-2.401-4.013-2.469c0.067-0.105,7.611,0.882,7.611,0.882
				s-5.589-3.256-5.506-3.388l7.266,1.003c0.028-0.045-1.194-0.694-1.176-0.723l3.788-2.549c0,0-0.403-0.194-0.379-0.233
				c0,0,4.441-1.716,4.443-1.718c0.006-0.009-3.444-2.076-3.424-2.107c0,0,3.984-0.795,3.996-0.813c0.031-0.05-4-2.461-4-2.461
				l7.153-0.549c0.038-0.059-3.597-2.094-3.542-2.18c0.109-0.172,7.351-0.044,7.351-0.044l-4.552-2.801c0,0,7.597,1.115,7.623,1.074
				c0,0-2.888-1.739-2.871-1.766l6.357,0.379c0.013-0.02-3.397-2.085-3.394-2.089c0,0,6.998,0.289,7.026,0.246
				c0.054-0.085-3.786-2.33-3.786-2.33s5.956,0.766,6.059,0.603c0.028-0.045-2.13-1.311-2.13-1.311
				c0.06-0.094,4.942-0.318,4.942-0.318c0.056-0.088-0.891-0.433-0.838-0.516c0.058-0.091,4.766-0.556,4.766-0.556
				c0.034-0.053-2.574-1.584-2.574-1.584s6.907,0.305,6.93,0.267c0,0-1.938-1.135-1.912-1.177c0.06-0.095,7.504,0.821,7.504,0.821
				c0.028-0.044-4.96-3.01-4.941-3.041c0.121-0.19,9.336,1.925,9.387,1.842c0,0-4.31-2.586-4.28-2.634l10.706,2.302
				c0.043-0.067-5.5-3.151-5.394-3.319c0.02-0.032,11.617,2.309,11.617,2.309c0.029-0.046-1.044-0.642-1.044-0.642"/>
			<line fill="#52616B" x1="392.925" y1="159.193" x2="391.946" y2="158.59"/>
			<path fill="#52616B" d="M550.723,85.83c0,0-2.876-1.768-2.875-1.769c0,0,7.929,0.463,7.954,0.425
				c0.019-0.03-1.511-0.93-1.511-0.93c0.003-0.005,7.877,0.777,7.877,0.777c0.013-0.02-0.252-0.155-0.252-0.155"/>
			<path fill="#52616B" d="M526.308,90.236c0,0-0.209-0.113-0.202-0.124c0.004-0.006,4.814-0.969,4.854-1.031
				c0,0-0.366-0.214-0.36-0.222l3.584-1.716c0,0-0.204-0.111-0.198-0.122l4.378-1.144c0.002-0.003-0.748-0.458-0.747-0.46"/>
			<path fill="#52616B" d="M510.329,102.224c0,0-2.324-1.391-2.306-1.419c0.054-0.084,3.658-1.206,3.708-1.285l-0.178-0.11
				c0,0,3.23-1.731,3.254-1.769l-0.52-0.32"/>
			<path fill="#52616B" d="M516.177,97.392c0.002-0.003-0.193-0.09-0.18-0.11c0,0,1.694-1.968,1.741-2.044
				c0.013-0.02-0.513-0.311-0.511-0.314c0,0,3.254-1.5,3.309-1.586l-1.321-0.813c0.077-0.121,6.208-1.049,6.324-1.232
				c0,0-1.456-0.895-1.456-0.896c0.075-0.119,4.974-0.273,4.983-0.285c0.002-0.004-0.169-0.104-0.169-0.104"/>
			<path fill="#52616B" d="M510.907,102.578c0.004-0.006-1.545-0.951-1.545-0.951"/>
			<path fill="#52616B" d="M495.777,120.78c0.029-0.047-1.423-0.876-1.423-0.876c0.072-0.114,4.587-1.513,4.587-1.513l-1.742-1.073
				c0.072-0.113,3.843-0.959,3.843-0.959c0.014-0.022-1.563-0.956-1.56-0.96c0,0,2.443-2.694,2.484-2.757l-1.323-0.814"/>
			<path fill="#52616B" d="M482.38,125.819c0.01-0.016-0.028-0.017-0.028-0.017l4.918-0.859c0,0-1.432-0.877-1.43-0.88"/>
			<path fill="#52616B" d="M469.428,125.226c0,0-2.826-1.702-2.809-1.728"/>
			<path fill="#52616B" d="M443.082,126.475c0,0-0.145-0.074-0.138-0.085c0.082-0.129,4.439-2.316,4.466-2.357
				c0,0-0.497-0.296-0.492-0.303c0.08-0.127,12.171,2.49,12.171,2.49s-5.584-3.372-5.554-3.418
				c0.069-0.109,15.365,4.959,15.664,4.489c0,0-6.817-4.152-6.797-4.183c0.02-0.032,13.996,4.684,14.252,4.281l-5.138-3.162
				c0.181-0.285,12.171,3.821,12.171,3.821c0.022-0.036-4.541-2.795-4.541-2.795"/>
			<path fill="#52616B" d="M437.739,138.692c0,0-3.244-1.851-3.177-1.955c0,0,5.071-1.416,5.125-1.5l-2.729-1.68"/>
			<line fill="#52616B" x1="433.949" y1="141.42" x2="433.377" y2="141.069"/>
			<path fill="#52616B" d="M428.17,155.064c0.005-0.007-0.396-0.244-0.396-0.244c0.06-0.095,2.751-2.059,2.751-2.059
				c0.008-0.013-1.676-1.032-1.676-1.032s2.851-2.74,2.878-2.781c0.002-0.003-1.207-0.735-1.203-0.741"/>
			<path fill="#52616B" d="M430.362,154.943c0.029-0.047-0.219-0.135-0.219-0.135l2.666-1.659l-1.74-1.071
				c0,0,2.013-3.042,2.069-3.13c0.025-0.04-1.339-0.824-1.339-0.824"/>
			<path fill="#52616B" d="M433.77,154.691c0.027-0.042-1.27-0.772-1.265-0.779"/>
			<path fill="#52616B" d="M424.115,158.359c0,0-0.119-0.061-0.114-0.07"/>
			<path fill="#52616B" d="M422.597,161.401c0,0-3.106-1.799-3.054-1.88c0,0,6.971,0.255,6.986,0.23c0,0-2.247-1.338-2.227-1.37"/>
			<line fill="#52616B" x1="414.35" y1="161.135" x2="413.516" y2="160.621"/>
			<path fill="#52616B" d="M404.032,162.284c0.009-0.014-5.398-3.322-5.398-3.322s11.2,4.042,11.344,3.814
				c0.046-0.071-4.122-2.481-4.096-2.521c0.093-0.146,10.351,2.712,10.351,2.712c0.009-0.014-4.276-2.469-4.202-2.586"/>
			<path fill="#52616B" d="M391.333,160.506c0.039-0.061-3.428-2.11-3.428-2.11"/>
			<path fill="#52616B" d="M394.983,163.362c0.05-0.078-3.872-2.372-3.867-2.38c0.098-0.155,11.305,2.57,11.305,2.57l-5.34-3.286
				c0.012-0.019,12.226,4.164,12.226,4.164c0.045-0.07-3.122-1.921-3.122-1.921c0.198-0.312,11.375,2.215,11.375,2.215l-2.635-1.621
				c0.052-0.081,6.198,0.841,6.288,0.697c0,0-2.896-1.631-2.827-1.74c0,0,7.272,0.208,7.348,0.089l-0.422-0.26
				c0,0,4.154-2.265,4.206-2.346c0,0-3.076-1.758-3.014-1.855c0.024-0.039,6.394,0.858,6.404,0.842l-5.152-3.171l6.394-1.102
				c0,0-0.133-0.067-0.126-0.078c0.026-0.041,1.613-3.586,1.616-3.59l-1.386-0.853c0.076-0.121,3.077-2.796,3.077-2.796
				c0.073-0.116-5.19-3.194-5.19-3.194c0.027-0.043,5.546-0.63,5.612-0.735l-3.219-1.981c0.05-0.078,4.581-1.023,4.599-1.052
				c0.007-0.011-0.291-0.175-0.289-0.178c0.039-0.06,0.89-4.035,0.926-4.094l-0.16-0.099l1.967-3.463
				c0.051-0.08-3.008-1.851-3.008-1.851c0.062-0.098,6.3-1.276,6.3-1.276c0.025-0.04-3.533-2.174-3.533-2.174"/>
			<path fill="#52616B" d="M373.179,159.307c0.025-0.04-0.845-0.497-0.834-0.513l6.549,0.095c0.005-0.009-1.277-0.733-1.253-0.771"
				/>
			<path fill="#52616B" d="M354.29,171.865c0,0-1.782-1.053-1.762-1.084l2.658-1.849c0.019-0.031-0.696-0.428-0.696-0.428
				s3.738-2.729,3.808-2.84c0,0-0.579-0.338-0.571-0.351l3.869-1.566c0,0-0.778-0.436-0.759-0.467
				c0.012-0.019,4.295-1.834,4.295-1.834l-0.579-0.356"/>
			<path fill="#52616B" d="M366.946,162.501l-0.621-0.382c0.073-0.115,7.423-0.589,7.423-0.589s-4.088-2.421-4.045-2.489
				l10.251,1.274l-0.953-0.587"/>
			<path fill="#52616B" d="M370.059,163.837l-2.053-1.263c0,0,7.104-0.266,7.134-0.315l-1.576-0.97l7.555,0.867l-2.398-1.476"/>
			<path fill="#52616B" d="M352.188,177.313c0.002-0.004-1.13-0.696-1.13-0.696s2.18-2.838,2.215-2.891
				c0.023-0.036-1.998-1.195-1.983-1.22"/>
			<path fill="#52616B" d="M350.676,184.394c0.011-0.017-2.203-1.356-2.203-1.356c0.041-0.063,3.015-1.835,3.066-1.916l-0.961-0.591
				c0.064-0.101,3.598-2.272,3.643-2.345c0.004-0.007-1.657-1.02-1.657-1.02c0.002-0.003,2.891-2.511,2.938-2.585
				c0.008-0.012-1.682-1.033-1.681-1.034"/>
			<path fill="#52616B" d="M356.698,174.131c0.005-0.009-1.715-1.05-1.713-1.054l2.126-2.043c0,0-0.918-0.556-0.914-0.563"/>
			<path fill="#52616B" d="M358.429,175.449c0.041-0.064-2.915-1.733-2.888-1.777l3.585-2.816c0.011-0.017-0.595-0.278-0.555-0.342
				c0.027-0.043,3.05-2.412,3.05-2.412s-3.333-1.924-3.275-2.015c0,0,5.444-0.15,5.469-0.189l-3.051-1.878
				c0,0,7.437,0.469,7.454,0.442c0.024-0.038-2.686-1.653-2.686-1.653"/>
			<path fill="#52616B" d="M344.556,195.734c0,0-0.513-0.256-0.485-0.299"/>
			<path fill="#52616B" d="M348.359,199.65l-6.283-3.867l8.121,0.877c0,0-5.049-2.92-4.963-3.054c0,0,7.774,0.906,7.826,0.825
				l-5.676-3.493c0.013-0.021,7.247-0.379,7.247-0.379l-6.642-4.087c0.113-0.178,6.307,0.674,6.362,0.588
				c0,0-3.365-1.986-3.327-2.047l3.871-1.782l-3.616-2.225"/>
			<line fill="#52616B" x1="337.895" y1="200.96" x2="334.653" y2="198.965"/>
			<line fill="#52616B" x1="328.329" y1="201.563" x2="324.303" y2="199.086"/>
			<path fill="#52616B" d="M293.253,199.27c0.02-0.032-2.61-1.575-2.595-1.597c0,0,9.032,0.896,9.136,0.733l-3.5-2.154l11.079,3.275
				c0.069-0.109-4.867-2.995-4.867-2.995"/>
			<path fill="#52616B" d="M298.405,200.694c0.021-0.033-1.129-0.653-1.111-0.683c0.017-0.027,8.046,0.804,8.178,0.594
				c0,0-1.026-0.616-1.018-0.627c0,0,6.686,0.755,6.701,0.73l-0.574-0.353"/>
			<path fill="#52616B" d="M237.588,235.265c0.151-0.239-7.762-4.45-7.613-4.685c0.219-0.345,13.759,5.071,13.759,5.071
				c0.059-0.093-7.376-4.539-7.376-4.539"/>
			<path fill="#52616B" d="M205.489,240.31l-2.268-1.396l3.434-1.422c0.051-0.081-1.248-0.768-1.248-0.768
				c0.071-0.112,5.42,0.24,5.42,0.24l-3.652-2.248c0,0,7,0.055,7.089-0.085c0,0-1.956-1.149-1.93-1.188"/>
			<path fill="#52616B" d="M214.945,236.995l-1.818-1.119c0.019-0.03,5.624,0.376,5.624,0.376s-2.296-1.322-2.255-1.388"/>
			<path fill="#52616B" d="M110.064,293.012l-1.657-1.02c0.072-0.114,3.678-2.493,3.678-2.493c0.007-0.012-4.367-2.688-4.367-2.688
				c0.043-0.067,8.007,0.007,8.007,0.007c0.034-0.053-5.447-3.158-5.357-3.297c0.032-0.051,7.321,0.981,7.36,0.921
				c0.015-0.024-4.781-2.936-4.779-2.94l8.904,1.181c0.088-0.14-6.012-3.7-6.012-3.7c0.056-0.089,10.12,2.306,10.132,2.287
				c0,0-7.775-4.441-7.619-4.688c0.038-0.059,10.942,4.074,11.152,3.743c0.082-0.13-8.327-4.838-8.196-5.044l14.545,4.066
				c0,0-9.97-5.807-9.82-6.043l12.35,4.394l-8.899-5.477c0.004-0.006,16.503,5.577,16.74,5.202
				c0.205-0.324-10.316-6.322-10.303-6.341l16.615,5.85c0.228-0.361-11.165-6.871-11.165-6.871c0.037-0.058,16.25,6.289,16.25,6.289
				c0.105-0.164-10.155-6.249-10.155-6.249c0.046-0.072,15.56,6.141,15.607,6.067c0.186-0.293-12.225-7.523-12.225-7.523
				s15.956,6.272,16.203,5.885c0,0-9.828-5.657-9.649-5.938l16.098,4.953c0.149-0.235-10.077-6.201-10.077-6.201
				c0.028-0.045,17.056,5.823,17.056,5.823c0.04-0.063-9.948-6.122-9.948-6.122c0.168-0.264,12.637,4.223,12.761,4.029
				c0.077-0.122-8.988-5.328-8.896-5.474l14.357,3.683c0,0-9.584-5.58-9.439-5.809c0.092-0.146,12.904,3.508,12.904,3.508
				s-7.852-4.824-7.848-4.83c0.217-0.342,11.56,2.523,11.725,2.264c0,0-9.668-5.855-9.625-5.923
				c0.174-0.274,12.285,3.463,12.285,3.463l-10.343-6.365l12.144,3.974l-9.597-5.905c0.134-0.211,12.157,2.404,12.157,2.404
				l-10.32-6.35c0.031-0.05,10.812,3.519,10.812,3.519c0.13-0.204-8.935-5.267-8.829-5.433c0,0,10.604,3.772,10.788,3.482
				c0,0-9.451-5.406-9.264-5.701c0,0,11.193,4.169,11.39,3.859l-9.965-6.132l11.235,2.951c0.064-0.102-9.218-5.542-9.158-5.636
				c0.023-0.036,13.382,3.653,13.382,3.653c0.127-0.2-7.292-4.192-7.158-4.405c0.135-0.212,11.244,1.824,11.285,1.758l-7.269-4.473
				l11.612,3.078c0.027-0.043-4.206-2.588-4.206-2.588c0.199-0.314,10.7,2.373,10.799,2.217c0,0-6.215-3.783-6.197-3.813
				c0.1-0.156,12.615,4.233,12.615,4.233s-15.019-8.611-14.731-9.065c0.113-0.177,20.96,9.337,21.382,8.672
				c0.15-0.237-15.112-9.093-15.018-9.242c0.186-0.293,22.654,9.944,22.654,9.944c0.135-0.213-7.679-4.448-7.552-4.647
				c0.078-0.123,13.328,3.734,13.328,3.734l-13.302-8.186c0,0,17.44,7.38,17.646,7.054c0,0-11.617-6.694-11.409-7.021
				c0,0,17.203,5.985,17.45,5.596l-10.543-6.488c0.25-0.393,14.589,4.799,14.589,4.799c0.065-0.102-10.875-6.215-10.657-6.558
				c0.16-0.253,12.81,4.349,12.81,4.349l-9.259-5.698c0.22-0.347,11.965,4.714,12.19,4.359c0,0-10.446-6.424-10.444-6.427
				c0.033-0.052,11.951,3.263,11.951,3.263c0.194-0.306-10.992-6.243-10.754-6.618l13.413,3.274
				c0.112-0.176-10.489-6.375-10.453-6.432c0,0,12.294,3.48,12.462,3.214c0,0-11.668-6.959-11.567-7.118
				c0.217-0.343,13.569,3.251,13.569,3.251l-11.373-6.999c0.159-0.252,12.386,2.603,12.386,2.603s-10.134-5.81-9.939-6.116
				l12.508,3.753c0.122-0.192-9.646-5.627-9.505-5.85c0.095-0.15,10.855,3.565,10.855,3.565c0.138-0.218-9.674-5.953-9.674-5.953
				c0.281-0.444,14.583,4.181,14.583,4.181s-11.07-6.686-11.012-6.777c0.256-0.404,14.286,4.533,14.286,4.533
				c0.235-0.369-9.879-6.057-9.869-6.073c0,0,15.676,6.171,15.69,6.148c0.185-0.291-11.9-7.323-11.9-7.323
				c0.123-0.194,18.837,7.469,18.852,7.446c0.06-0.094-7.35-4.422-7.304-4.495c0.296-0.468,16.317,6.598,16.553,6.224
				c0,0-9.945-6.041-9.908-6.098c0.2-0.315,15.781,6.284,15.781,6.284c0.101-0.159-8.571-5.275-8.571-5.275l16.414,5.261
				c0.175-0.275-15.962-9.176-15.668-9.642c0.359-0.567,23.122,9.809,23.122,9.809s-8.58-5.024-8.463-5.209
				c0.233-0.367,12.673,4.112,12.673,4.112c0.072-0.113-12.422-7.644-12.422-7.644c0.323-0.509,17.073,5.709,17.073,5.709
				c0.12-0.189-5.911-3.637-5.911-3.637c0.083-0.131,8.748,2.01,8.811,1.91l-9.336-5.745c0.15-0.237,12.928,4.626,13.053,4.428
				c0.002-0.003-5.196-3.198-5.196-3.198s6.551-0.631,6.62-0.741c0,0-2.769-1.552-2.7-1.662c0,0,4.506-0.894,4.583-1.013
				c0,0-2.888-1.71-2.857-1.758c0.085-0.135,5.481-0.411,5.481-0.411c0.077-0.121-4.889-2.857-4.819-2.966
				c0.054-0.085,4.839-1.998,4.88-2.062c0.104-0.164-3.803-2.141-3.711-2.284l5.624-1.299c0.133-0.209-8.798-5.414-8.798-5.414
				c0.147-0.233,8.329,0.45,8.437,0.281c0,0-5.923-3.439-5.829-3.587c0.042-0.066,7.608,1.394,7.731,1.199l-4.702-2.894
				c0.018-0.029,6.746-0.508,6.771-0.545l-4.777-2.939c0.073-0.115,6.977,0.572,6.977,0.572c0.065-0.103-4.647-2.859-4.647-2.859
				l7.13-0.236c0,0-3.276-1.903-3.224-1.984l8.752,0.407l-3.467-2.133c0,0,7.88,1.844,7.913,1.791c0,0-4.346-2.586-4.305-2.65
				l12.764,3.101l-9.117-5.611c0.035-0.054,17.872,6.807,18.144,6.378l-13.822-8.505c0.121-0.19,24.347,10.139,24.347,10.139
				l-7.092-4.364c0.135-0.213,14.787,4.536,14.787,4.536c0.076-0.12-6.341-3.832-6.309-3.882c0,0,10.977,3.068,11.01,3.015
				c0,0-3.791-2.225-3.742-2.302l7.696,0.983c0.083-0.131-2.718-1.55-2.662-1.638c0,0,7.04-0.416,7.138-0.572
				c0.072-0.113-2.754-1.551-2.688-1.654l7.393-0.393c0.009-0.015-2.545-1.428-2.482-1.527l6.026-1.074l-3.807-2.342l4.938-1.786
				c0.045-0.071-2.666-1.641-2.666-1.641c0.091-0.144,4.676-2.114,4.74-2.215l-2.695-1.659c0.011-0.018,3.74-0.898,3.801-0.994
				l-3.506-2.158l4.396-0.879c0.06-0.095-4.645-2.858-4.645-2.858c0.057-0.089,4.668-0.165,4.708-0.23
				c0.036-0.057-3.185-1.96-3.185-1.96l3.098-2.033c0.015-0.024-3.044-1.874-3.044-1.874s5.221-0.291,5.283-0.388
				c0.064-0.101-4.031-2.481-4.031-2.481l6.205-0.797c0.012-0.019-2.515-1.415-2.454-1.51c0.073-0.116,4.627-1.699,4.635-1.712
				l-2.229-1.372c0,0,6.746,0.057,6.754,0.046c0.086-0.135-6.817-4.195-6.817-4.195s12.561,4.637,12.709,4.403
				c0.123-0.193-8.584-5.104-8.503-5.233c0,0,14.317,5.625,14.582,5.207c0,0-4.396-2.518-4.31-2.652l13.189,3.874
				c0,0-3.872-2.36-3.862-2.376l11.758,2.105c0.006-0.01-1.868-1.15-1.868-1.15c0.057-0.089,6.68,1.227,6.798,1.042l-2.671-1.643
				c0.127-0.201,7.559,0.565,7.565,0.555c0.122-0.193-4.929-3.033-4.929-3.033c0.136-0.214,8.447,1.693,8.447,1.693
				s-5.364-3.046-5.248-3.23c0.004-0.006,6.173,0.644,6.173,0.644l-3.903-2.402c0.1-0.156,7.415,0.694,7.511,0.542
				c0.031-0.05-3.409-2.097-3.409-2.097l4.61-0.494c0.009-0.014-2.382-1.466-2.382-1.466l5.04-0.44c0,0-2.454-1.476-2.439-1.501
				c0.018-0.029,4.114-1.828,4.114-1.828s-2.73-1.637-2.71-1.668l3.832-2.063c0.103-0.162-4.552-2.66-4.488-2.762
				c0,0,6.298,0.704,6.347,0.624c0.022-0.036-5.581-3.201-5.474-3.369c0.124-0.195,7.448,0.821,7.448,0.821
				c0.005-0.008-3.784-2.329-3.784-2.329c0.083-0.132,6.831,0.575,6.903,0.461c0.014-0.022-3.427-1.992-3.373-2.076
				c0.062-0.097,4.839-1.294,4.855-1.318l-2.374-1.461c0.072-0.113,4.964-0.377,4.964-0.377l-2.063-1.27l5.438-1.152l-2.543-1.564
				c0.061-0.097,6.308,0.127,6.308,0.127l-2.439-1.501c0.113-0.178,6.059,0.043,6.172-0.135L526.8,92.82l5.402,0.029
				c0.001-0.002-2.178-1.251-2.137-1.315c0,0,5.894-0.102,6.005-0.275c0.008-0.012-3.475-2.123-3.468-2.134l7.359-0.27
				c0.069-0.109-2.596-1.563-2.58-1.588l6.48,0.709c0.034-0.052-3.709-2.283-3.709-2.283l9.259,2.341
				c0.063-0.1-5.287-3.254-5.287-3.254c0.148-0.234,9.8,2.343,9.926,2.144c0,0-2.877-1.689-2.84-1.748c0,0,9.771,1.238,9.88,1.067
				c0,0-0.845-0.513-0.842-0.518"/>
		</g>
	</g>
</g>
</svg>
